<svg width="18" height="18" viewBox="0 0 18 18" fill="none" xmlns="http://www.w3.org/2000/svg">
<path d="M5.66667 1.5V4C5.66667 4.44203 5.49107 4.86595 5.17851 5.17851C4.86595 5.49107 4.44203 5.66667 4 5.66667H1.5M16.5 5.66667H14C13.558 5.66667 13.134 5.49107 12.8215 5.17851C12.5089 4.86595 12.3333 4.44203 12.3333 4V1.5M12.3333 16.5V14C12.3333 13.558 12.5089 13.134 12.8215 12.8215C13.134 12.5089 13.558 12.3333 14 12.3333H16.5M1.5 12.3333H4C4.44203 12.3333 4.86595 12.5089 5.17851 12.8215C5.49107 13.134 5.66667 13.558 5.66667 14V16.5" stroke="#000" stroke-width="2" stroke-linecap="round" stroke-linejoin="round"/>
</svg>
